<?xml version="1.0" encoding="UTF-8"?>
<svg version="1.1" xmlns="http://www.w3.org/2000/svg" width="336" height="336">
<path d="M0 0 C9.48630316 8.71973321 18.19089738 17.59785666 18.82421875 30.9609375 C19.21293222 47.00616559 17.2367795 62.74174389 6.70703125 75.48828125 C5.71703125 76.14828125 4.72703125 76.80828125 3.70703125 77.48828125 C4.19171875 77.86597656 4.67640625 78.24367188 5.17578125 78.6328125 C14.35159292 86.16756554 20.96378411 95.08899957 23.39453125 106.80078125 C24.49428795 119.77791033 24.5379742 134.4867614 16.70703125 145.48828125 C9.86589334 153.27582164 1.89642475 157.10887421 -8.29296875 158.48828125 C-30.63048239 159.82977997 -58.40506437 156.11078046 -77.29296875 143.48828125 C-79.82515348 139.69000416 -79.39083525 138.05931422 -79.04296875 133.55078125 C-78.9910437 132.87038284 -78.93911865 132.18998444 -78.88562012 131.4889679 C-78.593086 127.79174502 -78.26500592 124.10995117 -77.79980469 120.43017578 C-76.48527733 109.71583177 -76.07099679 99.0441334 -75.94921875 88.2578125 C-75.94104378 87.53493357 -75.9328688 86.81205463 -75.92444611 86.06727028 C-75.86038112 80.04896161 -75.8185306 74.03052362 -75.77728271 68.01202393 C-75.48925997 26.97371105 -75.48925997 26.97371105 -71.29296875 10.48828125 C-72.99453125 10.82859375 -72.99453125 10.82859375 -74.73046875 11.17578125 C-78.13174976 11.19990381 -79.12128453 10.64859565 -81.65234375 8.28515625 C-83.98202519 5.42386965 -86.15288018 2.4933392 -88.29296875 -0.51171875 C-88.85886719 -1.1975 -89.42476562 -1.88328125 -90.0078125 -2.58984375 C-91.41796875 -4.32421875 -91.41796875 -4.32421875 -93.29296875 -7.51171875 C-92.91015625 -10.7109375 -92.91015625 -10.7109375 -92.29296875 -13.51171875 C-91.32174072 -13.5367749 -90.3505127 -13.56183105 -89.34985352 -13.58764648 C-85.65755631 -13.68365088 -81.96536581 -13.7833546 -78.27319336 -13.8840332 C-76.69183898 -13.92666893 -75.11045916 -13.96837368 -73.52905273 -14.0090332 C-63.65194877 -14.26374362 -53.79976731 -14.66152835 -43.93896484 -15.28833008 C-26.20669978 -16.37477862 -13.64316272 -11.61327871 0 0 Z M-41.29296875 11.48828125 C-45.54414142 27.27430243 -46.69756622 43.19199432 -46.29296875 59.48828125 C-30.53327831 60.50678765 -30.53327831 60.50678765 -16.29296875 55.30078125 C-8.62010662 44.51081888 -9.38899646 30.39886523 -10.67578125 17.71484375 C-11.10216479 14.35361298 -11.10216479 14.35361298 -13.29296875 11.48828125 C-16.04544687 10.57078854 -17.6942013 10.35978084 -20.53125 10.35546875 C-21.35173828 10.35417969 -22.17222656 10.35289063 -23.01757812 10.3515625 C-23.87158203 10.35542969 -24.72558594 10.35929687 -25.60546875 10.36328125 C-26.44787109 10.35941406 -27.29027344 10.35554688 -28.15820312 10.3515625 C-32.6499377 10.35858632 -36.87259689 10.57968932 -41.29296875 11.48828125 Z M-46.29296875 82.48828125 C-46.3180249 83.60686523 -46.34308105 84.72544922 -46.36889648 85.87792969 C-46.46404757 90.08260898 -46.56399178 94.28716374 -46.6652832 98.49169922 C-46.70822963 100.30123961 -46.74992711 102.11081014 -46.7902832 103.92041016 C-47.01162386 113.80695958 -47.26912965 123.64435099 -48.29296875 133.48828125 C-38.93269606 135.4972172 -26.90524379 136.24722911 -18.29296875 131.48828125 C-12.66790717 127.64246312 -8.69802591 123.30265338 -7.29296875 116.48828125 C-7.04903888 113.07474137 -7.06189771 109.65969152 -7.04296875 106.23828125 C-7.02234375 105.32175781 -7.00171875 104.40523437 -6.98046875 103.4609375 C-6.94606953 97.43247339 -7.63421134 92.93414987 -10.29296875 87.48828125 C-15.37022066 83.24653628 -20.75528015 82.35798692 -27.15234375 82.390625 C-28.26738281 82.39384766 -29.38242188 82.39707031 -30.53125 82.40039062 C-32.26955078 82.41295898 -32.26955078 82.41295898 -34.04296875 82.42578125 C-35.21730469 82.43029297 -36.39164063 82.43480469 -37.6015625 82.43945312 C-40.49874947 82.45123031 -43.39583329 82.46767799 -46.29296875 82.48828125 Z " fill="#02BD62" transform="translate(262.29296875,88.51171875)"/>
<path d="M0 0 C0.76001816 -0.00189835 1.52003632 -0.00379669 2.30308533 -0.00575256 C4.80714344 -0.00944691 7.31090919 0.00122729 9.81494141 0.01245117 C11.562225 0.01364418 13.30950923 0.01409588 15.05679321 0.01383972 C18.71677677 0.01540244 22.37666222 0.02367418 26.03662109 0.03710938 C30.71600175 0.05407359 35.39527443 0.05792422 40.07468224 0.05716419 C43.6830243 0.05743688 47.29134301 0.0629343 50.89967728 0.07016563 C52.62436369 0.07333671 54.34905274 0.07531604 56.07374191 0.07605934 C58.49061278 0.07824098 60.90737209 0.08702494 63.32421875 0.09765625 C64.02990494 0.09720306 64.73559113 0.09674988 65.46266174 0.09628296 C76.87042359 0.16921479 76.87042359 0.16921479 80.22509766 2.70385742 C80.96953125 3.65131836 80.96953125 3.65131836 81.72900391 4.61791992 C82.29490234 5.33077148 82.86080078 6.04362305 83.44384766 6.77807617 C84.05357422 7.59147461 84.66330078 8.40487305 85.29150391 9.24291992 C86.03529297 10.19038086 86.77908203 11.1378418 87.54541016 12.11401367 C91.81784606 17.70904712 91.81784606 17.70904712 93.29150391 20.24291992 C91.99727429 24.12560878 90.09900831 25.27027534 86.91650391 27.80541992 C85.93939453 28.59045898 84.96228516 29.37549805 83.95556641 30.18432617 C78.69200142 34.25162639 78.69200142 34.25162639 75.41650391 34.18041992 C71.55278501 33.02130425 70.00370449 31.1692416 67.29150391 28.24291992 C64.02001058 26.16081609 61.2704561 25.94635723 57.43212891 25.82885742 C55.75957031 25.77084961 55.75957031 25.77084961 54.05322266 25.71166992 C52.89435547 25.68073242 51.73548828 25.64979492 50.54150391 25.61791992 C49.36716797 25.57924805 48.19283203 25.54057617 46.98291016 25.50073242 C44.08593123 25.40652172 41.18895764 25.32090391 38.29150391 25.24291992 C37.19024554 32.69158872 36.14157147 40.1437647 35.22900391 47.61791992 C34.99503906 49.51670898 34.99503906 49.51670898 34.75634766 51.45385742 C34.00988694 58.35982305 33.69441925 65.31023467 33.29150391 72.24291992 C34.87850098 72.09367065 34.87850098 72.09367065 36.49755859 71.94140625 C65.65898508 69.42767402 65.65898508 69.42767402 73.25390625 74.04321289 C77.70578142 78.60004386 81.45310016 84.82916687 82.29150391 91.24291992 C81.42456055 93.40209961 81.42456055 93.40209961 80.29150391 95.24291992 C79.96150391 95.90291992 79.63150391 96.56291992 79.29150391 97.24291992 C64.11150391 97.24291992 48.93150391 97.24291992 33.29150391 97.24291992 C33.33079006 107.56277181 33.33079006 107.56277181 33.3815918 117.88256836 C33.4237181 139.97849154 33.4237181 139.97849154 31.29150391 144.24291992 C36.76838866 144.26788468 42.24523932 144.28590364 47.72216797 144.29785156 C49.58024677 144.30283948 51.43832172 144.3096322 53.29638672 144.31835938 C63.3410773 144.36431194 73.29452854 144.38502672 83.29150391 143.24291992 C85.34014705 146.43427357 87.35013589 149.64829734 89.35400391 152.86791992 C90.22508789 154.22336914 90.22508789 154.22336914 91.11376953 155.60620117 C95.29245934 162.38111838 95.29245934 162.38111838 95.28759766 166.76635742 C94.29150391 169.24291992 94.29150391 169.24291992 92.29150391 171.24291992 C90.31861877 171.49688721 90.31861877 171.49688721 87.86791992 171.50170898 C86.48861046 171.51116547 86.48861046 171.51116547 85.08143616 171.52081299 C84.07954758 171.51676453 83.077659 171.51271606 82.04541016 171.50854492 C81.00569565 171.51045837 79.96598114 171.51237183 78.89476013 171.51434326 C76.67959351 171.515708 74.46441896 171.51199155 72.24926758 171.50366211 C68.92656352 171.49314949 65.60442331 171.5034509 62.28173828 171.51635742 C19.05675527 171.54676571 19.05675527 171.54676571 1.29150391 161.24291992 C-0.46640109 159.48501492 0.11864905 157.06757914 0.10400391 154.68041992 C0.14615277 148.23164342 0.89844144 142.00715502 1.7590332 135.62426758 C3.33878582 123.15375965 3.37781453 110.55562838 3.50244141 98.00463867 C3.50959986 97.31936411 3.51675831 96.63408955 3.52413368 95.92804909 C3.59121763 89.48857053 3.65516608 83.04910023 3.69287109 76.609375 C3.95622863 33.91347047 3.95622863 33.91347047 8.29150391 25.24291992 C6.52806641 25.49041992 6.52806641 25.49041992 4.72900391 25.74291992 C1.94113228 25.73310347 0.67159137 25.53764876 -1.55224609 23.81323242 C-3.41433853 21.70568235 -5.06550141 19.52546958 -6.70849609 17.24291992 C-7.37751953 16.39084961 -8.04654297 15.5387793 -8.73583984 14.66088867 C-13.70849609 8.09304368 -13.70849609 8.09304368 -13.70849609 4.56713867 C-12.70849609 2.24291992 -12.70849609 2.24291992 -10.6277771 1.11283875 C-7.04556598 0.04537286 -3.70076599 -0.02930177 0 0 Z " fill="#02BE62" transform="translate(74.70849609375,73.757080078125)"/>
<path d="M0 0 C-0.66 0.33 -1.32 0.66 -2 1 C-3.8046875 0.2578125 -3.8046875 0.2578125 -5.875 -0.875 C-10.42828168 -3.35073871 -14.0605713 -4.12647067 -19.25 -4.1328125 C-20.31702148 -4.13474609 -21.38404297 -4.13667969 -22.48339844 -4.13867188 C-23.64387695 -4.13416016 -24.80435547 -4.12964844 -26 -4.125 C-27.80645996 -4.12209961 -27.80645996 -4.12209961 -29.64941406 -4.11914062 C-45.77186982 -4.04583822 -61.88675293 -3.51712025 -78 -3 C-77.24952434 1.4877785 -75.83555663 3.98442294 -73.0625 7.625 C-71.99708984 9.03652344 -71.99708984 9.03652344 -70.91015625 10.4765625 C-70.27980469 11.30929688 -69.64945313 12.14203125 -69 13 C-68.34 13.99 -67.68 14.98 -67 16 C-64.57478506 16.58189266 -64.57478506 16.58189266 -61.875 16.6875 C-60.50988281 16.78611328 -60.50988281 16.78611328 -59.1171875 16.88671875 C-58.41851562 16.92410156 -57.71984375 16.96148437 -57 17 C-57.13277344 18.01578125 -57.26554687 19.0315625 -57.40234375 20.078125 C-57.58086765 21.46873223 -57.75924502 22.85935827 -57.9375 24.25 C-58.02451172 24.91257812 -58.11152344 25.57515625 -58.20117188 26.2578125 C-59.55142786 36.85982245 -60.14375424 47.37974326 -60.19923019 58.06738663 C-60.21132449 60.20108528 -60.23084937 62.3346075 -60.25234985 64.4682312 C-60.31291596 70.52709668 -60.36739013 76.58594131 -60.40136719 82.64501953 C-60.49616772 98.70608401 -60.737231 114.53419635 -62.96469116 130.4758606 C-63.91989054 137.3614227 -64.1609167 144.05017702 -64 151 C-62.02 151.66 -60.04 152.32 -58 153 C-58 153.66 -58 154.32 -58 155 C-63.42216359 153.55408971 -63.42216359 153.55408971 -65.7109375 151.359375 C-67.5227557 148.04319866 -67.13895274 145.74844558 -66.8125 142 C-66.75497559 141.32520096 -66.69745117 140.65040192 -66.63818359 139.95515442 C-66.31741892 136.27700616 -65.96603061 132.61086252 -65.50073242 128.94799805 C-63.37133225 111.54576728 -63.6042746 94.02725927 -63.48431396 76.52374268 C-63.19629122 35.4854298 -63.19629122 35.4854298 -59 19 C-60.7015625 19.3403125 -60.7015625 19.3403125 -62.4375 19.6875 C-65.83878101 19.71162256 -66.82831578 19.1603144 -69.359375 16.796875 C-71.68905644 13.9355884 -73.85991143 11.00505795 -76 8 C-76.56589844 7.31421875 -77.13179687 6.6284375 -77.71484375 5.921875 C-79.125 4.1875 -79.125 4.1875 -81 1 C-80.6171875 -2.19921875 -80.6171875 -2.19921875 -80 -5 C-79.02877197 -5.02505615 -78.05754395 -5.0501123 -77.05688477 -5.07592773 C-73.36458756 -5.17193213 -69.67239706 -5.27163585 -65.98022461 -5.37231445 C-64.39887023 -5.41495018 -62.81749041 -5.45665493 -61.23608398 -5.49731445 C-51.35898002 -5.75202487 -41.50679856 -6.1498096 -31.64599609 -6.77661133 C-19.58827216 -7.51538308 -10.38581639 -6.5475799 0 0 Z " fill="#32B076" transform="translate(250,80)"/>
<path d="M0 0 C10.53109421 -0.1982842 20.65385845 -0.31290989 31 2 C31.495 3.485 31.495 3.485 32 5 C31.13487793 4.67854004 30.26975586 4.35708008 29.37841797 4.02587891 C26.07274364 3.02208909 23.38369823 2.69227933 19.9453125 2.5859375 C18.83671875 2.54726562 17.728125 2.50859375 16.5859375 2.46875 C14.87277344 2.42234375 14.87277344 2.42234375 13.125 2.375 C11.9596875 2.33632812 10.794375 2.29765625 9.59375 2.2578125 C6.72932136 2.16389681 3.86489308 2.07822017 1 2 C-0.10125837 9.4486688 -1.14993243 16.90084478 -2.0625 24.375 C-2.21847656 25.64085938 -2.37445313 26.90671875 -2.53515625 28.2109375 C-3.28161697 35.11690313 -3.59708466 42.06731475 -4 49 C-2.94200195 48.90050049 -1.88400391 48.80100098 -0.79394531 48.69848633 C28.36748118 46.1847541 28.36748118 46.1847541 35.96240234 50.80029297 C40.41427752 55.35712394 44.16159625 61.58624695 45 68 C44.13305664 70.15917969 44.13305664 70.15917969 43 72 C42.67 72.66 42.34 73.32 42 74 C26.82 74 11.64 74 -4 74 C-3.96071384 84.31985189 -3.96071384 84.31985189 -3.90991211 94.63964844 C-3.86778581 116.73557162 -3.86778581 116.73557162 -6 121 C-6.66 121 -7.32 121 -8 121 C-7.84660156 119.75476563 -7.69320312 118.50953125 -7.53515625 117.2265625 C-6.67633531 108.63835306 -6.63386054 99.99798056 -6.4375 91.375 C-6.293125 85.31125 -6.14875 79.2475 -6 73 C16.77 72.505 16.77 72.505 40 72 C41.06511235 66.67443824 40.77569284 65.91721826 37.9375 61.6328125 C37.504375 61.01148438 37.07125 60.39015625 36.625 59.75 C35.98691406 58.79480469 35.98691406 58.79480469 35.3359375 57.8203125 C33.35256448 54.7642014 33.35256448 54.7642014 31 52 C28.34738033 51.85229385 25.71744193 51.76500765 23.0625 51.71875 C22.267229 51.70034058 21.47195801 51.68193115 20.65258789 51.66296387 C18.10180265 51.60403029 15.55094978 51.55128742 13 51.5 C9.64568415 51.43256073 6.29159342 51.35889262 2.9375 51.28125 C2.15834229 51.26767456 1.37918457 51.25409912 0.57641602 51.2401123 C-4.88719819 51.11280181 -4.88719819 51.11280181 -6 50 C-7.09719037 35.37930044 -6.6661363 13.3322726 0 0 Z " fill="#30AD73" transform="translate(112,97)"/>
<path d="M0 0 C0.33 0 0.66 0 1 0 C1.02753831 1.5207267 1.04663375 3.04160674 1.0625 4.5625 C1.07410156 5.40941406 1.08570312 6.25632812 1.09765625 7.12890625 C1 10 1 10 0.50708008 12.81567383 C-0.36437678 18.77325308 -0.17748231 24.81300721 -0.2109375 30.8203125 C-0.22919243 32.89729913 -0.249624 34.97425792 -0.27009678 37.05122375 C-0.29158143 39.24326771 -0.31160506 41.43532213 -0.33157349 43.62738037 C-0.55051232 66.85781417 -1.04639058 89.92270577 -3.37890625 113.0546875 C-4.0141259 119.38945684 -4.15359709 125.63796381 -4 132 C-0.0611812 134.0631908 3.76102771 135.67012634 8 137 C9.62579911 137.53926342 11.25076416 138.08104621 12.875 138.625 C13.65617187 138.88539063 14.43734375 139.14578125 15.2421875 139.4140625 C15.82226562 139.60742188 16.40234375 139.80078125 17 140 C17 140.33 17 140.66 17 141 C9.00932548 140.59369452 -1.15347455 138.84652545 -7 133 C-7.88283896 124.76882497 -6.63080586 116.5297485 -5.53271484 108.38110352 C-3.95230857 95.91079503 -3.91368804 83.3125734 -3.7890625 70.76171875 C-3.77832482 69.73380691 -3.77832482 69.73380691 -3.76737022 68.68512917 C-3.70028628 62.2456506 -3.63633783 55.80618031 -3.59863281 49.36645508 C-3.49604732 32.71623914 -3.02478604 16.42675375 0 0 Z " fill="#34AD75" transform="translate(82,101)"/>
<path d="M0 0 C7.49927201 6.83757154 12.47423217 14.37636645 13.1796875 24.60546875 C13.56728095 40.56139901 11.45222817 56.34730274 1 69 C-0.485 69.99 -0.485 69.99 -2 71 C-1.5153125 71.37769531 -1.030625 71.75539063 -0.53125 72.14453125 C8.64456167 79.67928429 15.25675286 88.60071832 17.6875 100.3125 C18.49252273 109.81176827 17.66999716 118.62117667 16 128 C15.67 128 15.34 128 15 128 C15.01571045 127.23445801 15.0314209 126.46891602 15.04760742 125.68017578 C15.11053879 122.16186108 15.14917429 118.64366538 15.1875 115.125 C15.21263672 113.92101562 15.23777344 112.71703125 15.26367188 111.4765625 C15.35708236 100.01820969 13.42310667 90.94535666 6 82 C4.17041692 80.28430663 2.31682337 78.70823594 0.3203125 77.19140625 C-0.11539062 76.79824219 -0.55109375 76.40507812 -1 76 C-1 75.34 -1 74.68 -1 74 C-1.99 73.67 -2.98 73.34 -4 73 C-4.6875 70.9375 -4.6875 70.9375 -5 69 C-4.195625 68.54625 -3.39125 68.0925 -2.5625 67.625 C0.08856572 66.25274335 0.08856572 66.25274335 1 64 C1.66 64 2.32 64 3 64 C3.12503906 63.44054687 3.25007813 62.88109375 3.37890625 62.3046875 C4.05118787 59.8100576 4.95190628 57.51274025 5.9375 55.125 C6.63931525 53.42249761 7.32618544 51.7137774 8 50 C8.54914063 48.72576172 8.54914063 48.72576172 9.109375 47.42578125 C10.43830879 42.3140491 10.32844717 37.32187727 10.3125 32.0625 C10.32861328 31.00353516 10.34472656 29.94457031 10.36132812 28.85351562 C10.36605229 21.28067632 9.21261324 16.68768873 5.3125 10.1875 C4 8 4 8 4 6 C3.01 5.67 2.02 5.34 1 5 C0.67 3.35 0.34 1.7 0 0 Z " fill="#26B75F" transform="translate(268,95)"/>
<path d="M0 0 C26 0 26 0 34 1 C34 1.99 34 2.98 34 4 C33.11183594 3.84660156 32.22367188 3.69320312 31.30859375 3.53515625 C25.59344011 2.71870573 19.82517907 2.63734276 14.0625 2.4375 C12.32129883 2.37272461 12.32129883 2.37272461 10.54492188 2.30664062 C7.69671768 2.20115158 4.84843471 2.09903445 2 2 C2.00523682 3.1238208 2.01047363 4.2476416 2.01586914 5.40551758 C2.03413431 9.62311997 2.04550972 13.84071896 2.05493164 18.05834961 C2.05992311 19.87476186 2.06671864 21.69117018 2.07543945 23.50756836 C2.16597155 42.86546077 2.16597155 42.86546077 1 52 C0.34 52 -0.32 52 -1 52 C-0.67 34.84 -0.34 17.68 0 0 Z " fill="#26BA78" transform="translate(214,169)"/>
<path d="M0 0 C-0.99 0.66 -1.98 1.32 -3 2 C-2.5153125 2.37769531 -2.030625 2.75539062 -1.53125 3.14453125 C7.64456167 10.67928429 14.25675286 19.60071832 16.6875 31.3125 C17.49252273 40.81176827 16.66999716 49.62117667 15 59 C14.67 59 14.34 59 14 59 C14.01571045 58.23445801 14.0314209 57.46891602 14.04760742 56.68017578 C14.11053879 53.16186108 14.14917429 49.64366538 14.1875 46.125 C14.21263672 44.92101562 14.23777344 43.71703125 14.26367188 42.4765625 C14.35708236 31.01820969 12.42310667 21.94535666 5 13 C3.17041692 11.28430663 1.31682337 9.70823594 -0.6796875 8.19140625 C-1.33324219 7.60166016 -1.33324219 7.60166016 -2 7 C-2 6.34 -2 5.68 -2 5 C-2.99 4.67 -3.98 4.34 -5 4 C-5.6875 1.9375 -5.6875 1.9375 -6 0 C-3 -1 -3 -1 0 0 Z " fill="#2EA971" transform="translate(269,164)"/>
<path d="M0 0 C0.66 0.66 1.32 1.32 2 2 C-1.61556165 10.80310664 -7.32560635 16.73501955 -16.1875 20.4375 C-23.84279889 23.09868353 -30.95713666 23.11712908 -39 23 C-38.67 22.34 -38.34 21.68 -38 21 C-35.5234375 20.65625 -35.5234375 20.65625 -32.375 20.5 C-27.56679124 20.18097193 -23.56673622 19.46135559 -19 18 C-17.00511766 17.63729412 -15.0062189 17.29359301 -13 17 C-13 16.34 -13 15.68 -13 15 C-11.68 15 -10.36 15 -9 15 C-9 14.01 -9 13.02 -9 12 C-8.01 12 -7.02 12 -6 12 C-6 11.01 -6 10.02 -6 9 C-5.34 9 -4.68 9 -4 9 C-3.71125 8.2575 -3.4225 7.515 -3.125 6.75 C-2.17697356 4.43260203 -1.15154089 2.22082885 0 0 Z " fill="#28A66B" transform="translate(281,224)"/>
<path d="M0 0 C2.0625 2.125 2.0625 2.125 4 5 C3.85384044 8.72706873 3.65788293 10.34211707 1 13 C-0.97288513 13.25396729 -0.97288513 13.25396729 -3.42358398 13.25878906 C-4.34312363 13.26509338 -5.26266327 13.27139771 -6.21006775 13.27789307 C-7.21195633 13.2738446 -8.21384491 13.26979614 -9.24609375 13.265625 C-10.80566551 13.26849518 -10.80566551 13.26849518 -12.39674377 13.27142334 C-14.6119104 13.27278808 -16.82708494 13.26907163 -19.04223633 13.26074219 C-22.36494038 13.25022957 -25.6870806 13.26053098 -29.00976562 13.2734375 C-41.80309903 13.28063305 -54.31390541 12.66954824 -67 11 C-67 10.67 -67 10.34 -67 10 C-65.76612549 10.0714624 -64.53225098 10.1429248 -63.26098633 10.21655273 C-49.39321399 10.97368096 -35.5731547 11.1209311 -21.6875 11.0625 C-19.56705837 11.05746564 -17.44661556 11.05290622 -15.32617188 11.04882812 C-10.21741776 11.03799731 -5.10872266 11.02084408 0 11 C0 7.37 0 3.74 0 0 Z " fill="#2C8F64" transform="translate(166,232)"/>
<path d="M0 0 C0.66 0 1.32 0 2 0 C2 6.6 2 13.2 2 20 C6.21598069 22.10799035 9.61146573 23.62320493 14 25 C15.62579911 25.53926342 17.25076416 26.08104621 18.875 26.625 C19.65617187 26.88539063 20.43734375 27.14578125 21.2421875 27.4140625 C21.82226562 27.60742188 22.40234375 27.80078125 23 28 C23 28.33 23 28.66 23 29 C15.00932548 28.59369452 4.84652545 26.84652545 -1 21 C-1.58558306 13.99285358 -1.08759656 6.93342808 0 0 Z " fill="#2CA871" transform="translate(76,213)"/>
<path d="M0 0 C10.89 0 21.78 0 33 0 C33 0.99 33 1.98 33 3 C32.11183594 2.84660156 31.22367188 2.69320312 30.30859375 2.53515625 C24.59354467 1.71872067 18.82498441 1.63757328 13.0625 1.4375 C9.081875 1.293125 5.10125 1.14875 1 1 C1 13.87 1 26.74 1 40 C0.67 40 0.34 40 0 40 C0 26.8 0 13.6 0 0 Z " fill="#319B6C" transform="translate(215,170)"/>
<path d="M0 0 C1.8125 0.5 1.8125 0.5 4 2 C6.85362431 8.13563774 7.46654439 13.28674479 7.375 20 C7.38660156 20.85078125 7.39820313 21.7015625 7.41015625 22.578125 C7.38086641 28.94378368 6.71530559 35.28469441 2 40 C2.32355469 38.73285156 2.64710938 37.46570313 2.98046875 36.16015625 C4.14709493 30.8881612 4.33199167 25.82110036 4.3125 20.4375 C4.32861328 19.54353516 4.34472656 18.64957031 4.36132812 17.72851562 C4.36626171 10.98430874 3.02835365 6.05670731 0 0 Z " fill="#30AE74" transform="translate(250,174)"/>
<path d="M0 0 C0.66 1.32 1.32 2.64 2 4 C-1.51696599 8.55136775 -7.62609657 9.07353404 -13 10 C-14.83848168 10.07790887 -16.67942827 10.10793615 -18.51953125 10.09765625 C-19.54111328 10.09443359 -20.56269531 10.09121094 -21.61523438 10.08789062 C-22.67033203 10.07951172 -23.72542969 10.07113281 -24.8125 10.0625 C-25.88693359 10.05798828 -26.96136719 10.05347656 -28.06835938 10.04882812 C-30.71229683 10.03707729 -33.35611952 10.02064787 -36 10 C-36.33 9.34 -36.66 8.68 -37 8 C-36.38068604 8.01571045 -35.76137207 8.0314209 -35.12329102 8.04760742 C-32.26978995 8.1106403 -29.41643609 8.14920437 -26.5625 8.1875 C-25.10166992 8.22520508 -25.10166992 8.22520508 -23.61132812 8.26367188 C-14.02360454 8.35986977 -7.02293607 6.6627855 0 0 Z " fill="#2CAF74" transform="translate(250,214)"/>
<path d="M0 0 C0.66 0.33 1.32 0.66 2 1 C1.73574219 1.66515625 1.47148438 2.3303125 1.19921875 3.015625 C0.89388778 7.58960267 3.16531509 10.1640909 5.8125 13.75 C6.55560425 14.76912476 6.55560425 14.76912476 7.3137207 15.80883789 C9.71152401 18.86595146 11.31179126 20.72126638 14.9609375 22.19921875 C17.42775337 22.41480008 19.56348718 22.4175369 22 22 C21.67 23.32 21.34 24.64 21 26 C20.67 25.34 20.34 24.68 20 24 C18.2365625 24.2475 18.2365625 24.2475 16.4375 24.5 C13.64962837 24.49018355 12.38008746 24.29472884 10.15625 22.5703125 C8.29415757 20.46276243 6.64299468 18.28254966 5 16 C4.33097656 15.14792969 3.66195312 14.29585937 2.97265625 13.41796875 C-2.06926263 6.75864223 -2.06926263 6.75864223 -1.75 3.26171875 C-1 1 -1 1 0 0 Z " fill="#30AB72" transform="translate(63,75)"/>
<path d="M0 0 C0.66 0.33 1.32 0.66 2 1 C0.70577038 4.88268886 -1.1924956 6.02735542 -4.375 8.5625 C-5.35210937 9.34753906 -6.32921875 10.13257812 -7.3359375 10.94140625 C-12.59904535 15.00835322 -12.59904535 15.00835322 -16 14.9375 C-19 14 -19 14 -20.875 11.4375 C-21.24625 10.633125 -21.6175 9.82875 -22 9 C-18.125 10.875 -18.125 10.875 -17 12 C-14.67778613 12.46077735 -14.67778613 12.46077735 -12 12 C-9.30238638 10.04896002 -9.30238638 10.04896002 -6.8125 7.5 C-2.18055556 3 -2.18055556 3 0 3 C0 2.01 0 1.02 0 0 Z " fill="#30A774" transform="translate(166,93)"/>
<path d="M0 0 C3.39811867 3.13672493 5.9284038 6.60487753 8.375 10.5 C8.75527344 11.06847656 9.13554687 11.63695312 9.52734375 12.22265625 C10.5859375 13.90625 10.5859375 13.90625 12 17 C11.3515625 19.34375 11.3515625 19.34375 10 21 C9.34 21.33 8.68 21.66 8 22 C8.0825 21.14792969 8.165 20.29585937 8.25 19.41796875 C7.94414714 15.23638663 6.30551194 12.67340676 4 9.3125 C0 3.3597973 0 3.3597973 0 0 Z " fill="#2EAB72" transform="translate(145,148)"/>
<path d="M0 0 C5.145995 4.69193661 9.77695498 10.33086494 12 17 C11.34 17.99 10.68 18.98 10 20 C9.566875 18.948125 9.13375 17.89625 8.6875 16.8125 C7.68434768 14.45270359 6.64056505 12.40094175 5.3125 10.1875 C4 8 4 8 4 6 C3.01 5.67 2.02 5.34 1 5 C0.67 3.35 0.34 1.7 0 0 Z " fill="#30AB73" transform="translate(268,95)"/>
<path d="M0 0 C6.61519148 3.30759574 11.63820705 7.95106821 17 13 C13.29448515 13 11.59689801 12.52868109 8.8125 10.0625 C7 8 7 8 7 6 C4.525 5.01 4.525 5.01 2 4 C2 3.34 2 2.68 2 2 C1.34 2 0.68 2 0 2 C0 1.34 0 0.68 0 0 Z " fill="#2DA66D" transform="translate(251,81)"/>
<path d="M0 0 C0.66 1.32 1.32 2.64 2 4 C-0.52956528 7.0916909 -3.22454612 7.90931332 -7 9 C-6.82374165 6.62051228 -6.30280227 5.29774151 -4.59765625 3.62109375 C-3.09350908 2.37884514 -1.54870149 1.18623944 0 0 Z " fill="#1DB16B" transform="translate(250,214)"/>
<path d="M0 0 C6.44541485 6.26637555 6.44541485 6.26637555 9 10 C8.67 10.99 8.34 11.98 8 13 C7.51789063 12.36191406 7.03578125 11.72382812 6.5390625 11.06640625 C5.90742188 10.24011719 5.27578125 9.41382812 4.625 8.5625 C3.99851563 7.73878906 3.37203125 6.91507812 2.7265625 6.06640625 C1.16246096 3.91471908 1.16246096 3.91471908 -1 3 C-0.67 2.01 -0.34 1.02 0 0 Z " fill="#29AC6E" transform="translate(156,80)"/>
<path d="M0 0 C1.25 3.0625 1.25 3.0625 2 6 C1.34 6 0.68 6 0 6 C-0.21398437 5.35546875 -0.42796875 4.7109375 -0.6484375 4.046875 C-1.8473523 1.72160885 -1.8473523 1.72160885 -4.6015625 1.390625 C-6.09816406 1.32101563 -6.09816406 1.32101563 -7.625 1.25 C-9.12933594 1.16492188 -9.12933594 1.16492188 -10.6640625 1.078125 C-11.43492187 1.05234375 -12.20578125 1.0265625 -13 1 C-13 0.67 -13 0.34 -13 0 C-11.58456585 -0.19658808 -10.16755969 -0.38187546 -8.75 -0.5625 C-7.96109375 -0.66691406 -7.1721875 -0.77132812 -6.359375 -0.87890625 C-3.93209891 -1.00348499 -2.25456516 -0.90973682 0 0 Z " fill="#32A56F" transform="translate(159,218)"/>
<path d="M0 0 C0 0.99 0 1.98 0 3 C-6.625 4.25 -6.625 4.25 -10 2 C-6.3558226 -0.4294516 -4.28758728 -0.16179575 0 0 Z " fill="#0ECF4B" transform="translate(74,74)"/>
<path d="M0 0 C4.62 0 9.24 0 14 0 C14 0.99 14 1.98 14 3 C12.68 3.33 11.36 3.66 10 4 C9.67 3.34 9.34 2.68 9 2 C6.87423218 1.53348793 6.87423218 1.53348793 4.4375 1.375 C3.61121094 1.30023438 2.78492188 1.22546875 1.93359375 1.1484375 C1.29550781 1.09945312 0.65742188 1.05046875 0 1 C0 0.67 0 0.34 0 0 Z " fill="#0CBE69" transform="translate(208,75)"/>
<path d="M0 0 C4 4.5 4 4.5 4 9 C3.01 9 2.02 9 1 9 C0.67 6.03 0.34 3.06 0 0 Z " fill="#25AA6E" transform="translate(166,232)"/>
<path d="M0 0 C0.66 0.66 1.32 1.32 2 2 C1.38245741 3.31602523 0.75571258 4.62773556 0.125 5.9375 C-0.22304688 6.66839844 -0.57109375 7.39929688 -0.9296875 8.15234375 C-2 10 -2 10 -4 11 C-3.39301257 6.87248551 -1.96189209 3.6678852 0 0 Z " fill="#2DA76F" transform="translate(281,224)"/>
<path d="M0 0 C0.53625 0.28875 1.0725 0.5775 1.625 0.875 C4.35280484 2.16711808 7.12612718 3.08558592 10 4 C9.67 4.66 9.34 5.32 9 6 C6.1875 5.8125 6.1875 5.8125 3 5 C1.125 2.4375 1.125 2.4375 0 0 Z " fill="#3FAB76" transform="translate(144,102)"/>
<path d="M0 0 C0.33 0 0.66 0 1 0 C1.33 3.3 1.66 6.6 2 10 C1.01 10 0.02 10 -1 10 C-1.125 2.25 -1.125 2.25 0 0 Z " fill="#11BE67" transform="translate(282,214)"/>
<path d="M0 0 C2.64 0 5.28 0 8 0 C8 0.99 8 1.98 8 3 C5.6568787 2.74438677 3.32156597 2.40729228 1 2 C0.67 1.34 0.34 0.68 0 0 Z " fill="#2AAC6C" transform="translate(240,170)"/>
</svg>
